<svg xmlns="http://www.w3.org/2000/svg" viewBox="0 0 448 512" width="26" height="26">
  <defs>
    <linearGradient id="instagramGradient" x1="0%" y1="0%" x2="100%" y2="100%">
      <stop offset="0%" stop-color="#fdf497"/>
      <stop offset="25%" stop-color="#fd5949"/>
      <stop offset="50%" stop-color="#d6249f"/>
      <stop offset="100%" stop-color="#285AEB"/>
    </linearGradient>
  </defs>
  <path fill="url(#instagramGradient)" d="M224.1 141c-63.6 0-114.9 51.3-114.9 114.9S160.5 370.8 224.1 370.8 339 319.5 339 255.9 287.7 141 224.1 141zm0 189.6c-41.2 0-74.7-33.5-74.7-74.7s33.5-74.7 74.7-74.7 74.7 33.5 74.7 74.7-33.5 74.7-74.7 74.7zm146.4-194.3c0 14.9-12 26.9-26.9 26.9s-26.9-12-26.9-26.9 12-26.9 26.9-26.9 26.9 12 26.9 26.9zm76.1 27.2c-.1-55.2-44.8-100-100-100H101.9c-55.2 0-100 44.8-100 100v202.2c0 55.2 44.8 100 100 100h244.7c55.2 0 100-44.8 100-100V163.5zm-48.6 203.7c0 26.5-21.5 48-48 48H101.9c-26.5 0-48-21.5-48-48V163.5c0-26.5 21.5-48 48-48h244.7c26.5 0 48 21.5 48 48v203.7z"/>
</svg>
